# xmcd
#
# Track frame offsets:
#	150
#	17548
#	32317
#	48770
#	62765
#	81280
#	99832
#	119204
#	133811
#	147218
#	160242
#	176704
#	193121
#
# Disc length: 2819 seconds
#
# Revision: 2
# Processed by: cddbd v1.5.2PL0 Copyright (c) Steve Scherf et al.
# Submitted via: audiograbber 1.83.01
#
DISCID=ac0b010d
DTITLE=Bligg - Bart aber herzlich
DYEAR=2010
DGENRE=Hip-Hop
TTITLE0=Exklusiv Introview*
TTITLE1=Chef
TTITLE2=Legändä and Heldä
TTITLE3=Romeo and Julia
TTITLE4=Spiegel**
TTITLE5=Stadt - Land
TTITLE6=Annie May
TTITLE7=Manhattan
TTITLE8=I'd kill for you***
TTITLE9=Fahr e mal
TTITLE10=Rendezvous
TTITLE11=S.O.S.
TTITLE12=Okay
EXTD=
EXTT0=* feat Samurai
EXTT1=
EXTT2=
EXTT3=
EXTT4=**feat Xavier Naidoo
EXTT5=
EXTT6=
EXTT7=
EXTT8=***feat Jessy Home
EXTT9=
EXTT10=
EXTT11=
EXTT12=
PLAYORDER=
